<mxfile host="app.diagrams.net" modified="2023-06-13T14:28:07.289Z" agent="Mozilla/5.0 (Windows NT 10.0; Win64; x64) AppleWebKit/537.36 (KHTML, like Gecko) Chrome/114.0.0.0 Safari/537.36" etag="b2_xyb_kBnswp_nswicN" version="21.3.8" type="device">
  <diagram name="Sayfa -1" id="xmJuOyD6b71XNQbo8g8n">
    <mxGraphModel dx="1290" dy="581" grid="1" gridSize="10" guides="1" tooltips="1" connect="1" arrows="1" fold="1" page="1" pageScale="1" pageWidth="827" pageHeight="1169" math="0" shadow="0">
      <root>
        <mxCell id="0" />
        <mxCell id="1" parent="0" />
        <mxCell id="FU0tGcsPPmCCPcC8ONBr-1" value="ArticleAPI&lt;br&gt;Presentation Layer&lt;br&gt;MVC, WEB API, Gprc, WCF, Console" style="whiteSpace=wrap;html=1;aspect=fixed;" vertex="1" parent="1">
          <mxGeometry x="160" y="60" width="240" height="240" as="geometry" />
        </mxCell>
        <mxCell id="FU0tGcsPPmCCPcC8ONBr-2" value="ArticleAPI.Domain&lt;br&gt;Entities&lt;br&gt;Domain Services&lt;br&gt;Domain Exception&lt;br&gt;Bussiness Case" style="rounded=0;whiteSpace=wrap;html=1;" vertex="1" parent="1">
          <mxGeometry x="770" y="330" width="210" height="80" as="geometry" />
        </mxCell>
        <mxCell id="FU0tGcsPPmCCPcC8ONBr-3" value="ArticleAPI.Application&lt;br&gt;Dto,Validation,Handlers&lt;br&gt;&lt;br&gt;Use Cases" style="rounded=0;whiteSpace=wrap;html=1;" vertex="1" parent="1">
          <mxGeometry x="530" y="150" width="210" height="80" as="geometry" />
        </mxCell>
        <mxCell id="FU0tGcsPPmCCPcC8ONBr-4" value="ArticleAPI.Persistance&lt;br&gt;Configs, Migrations, Context, DbConection, DbCommand" style="rounded=0;whiteSpace=wrap;html=1;" vertex="1" parent="1">
          <mxGeometry x="530" y="480" width="210" height="80" as="geometry" />
        </mxCell>
        <mxCell id="FU0tGcsPPmCCPcC8ONBr-5" value="ArticleAPI.Infra&lt;br&gt;Repository,EmailService, StorageService, ElasticService&lt;br&gt;" style="rounded=0;whiteSpace=wrap;html=1;" vertex="1" parent="1">
          <mxGeometry x="530" y="340" width="210" height="80" as="geometry" />
        </mxCell>
        <mxCell id="FU0tGcsPPmCCPcC8ONBr-8" value="" style="endArrow=none;html=1;rounded=0;" edge="1" parent="1" target="FU0tGcsPPmCCPcC8ONBr-9">
          <mxGeometry width="50" height="50" relative="1" as="geometry">
            <mxPoint x="420" y="140" as="sourcePoint" />
            <mxPoint x="500" y="190" as="targetPoint" />
          </mxGeometry>
        </mxCell>
        <mxCell id="FU0tGcsPPmCCPcC8ONBr-9" value="MediaTR" style="text;html=1;strokeColor=none;fillColor=none;align=center;verticalAlign=middle;whiteSpace=wrap;rounded=0;" vertex="1" parent="1">
          <mxGeometry x="430" y="165" width="60" height="30" as="geometry" />
        </mxCell>
        <mxCell id="FU0tGcsPPmCCPcC8ONBr-10" value="" style="endArrow=none;html=1;rounded=0;exitX=0;exitY=0.5;exitDx=0;exitDy=0;entryX=1;entryY=0.5;entryDx=0;entryDy=0;" edge="1" parent="1" source="FU0tGcsPPmCCPcC8ONBr-3" target="FU0tGcsPPmCCPcC8ONBr-9">
          <mxGeometry width="50" height="50" relative="1" as="geometry">
            <mxPoint x="390" y="330" as="sourcePoint" />
            <mxPoint x="440" y="280" as="targetPoint" />
          </mxGeometry>
        </mxCell>
        <mxCell id="FU0tGcsPPmCCPcC8ONBr-11" value="" style="endArrow=none;html=1;rounded=0;" edge="1" parent="1">
          <mxGeometry width="50" height="50" relative="1" as="geometry">
            <mxPoint x="840" y="320" as="sourcePoint" />
            <mxPoint x="710" y="240" as="targetPoint" />
          </mxGeometry>
        </mxCell>
        <mxCell id="FU0tGcsPPmCCPcC8ONBr-13" value="" style="endArrow=none;html=1;rounded=0;" edge="1" parent="1">
          <mxGeometry width="50" height="50" relative="1" as="geometry">
            <mxPoint x="640" y="320" as="sourcePoint" />
            <mxPoint x="640" y="250" as="targetPoint" />
          </mxGeometry>
        </mxCell>
        <mxCell id="FU0tGcsPPmCCPcC8ONBr-14" value="Bussiness Case, Entity Ref" style="text;html=1;strokeColor=none;fillColor=none;align=center;verticalAlign=middle;whiteSpace=wrap;rounded=0;" vertex="1" parent="1">
          <mxGeometry x="800" y="260" width="150" height="40" as="geometry" />
        </mxCell>
        <mxCell id="FU0tGcsPPmCCPcC8ONBr-16" value="Infra" style="text;html=1;strokeColor=none;fillColor=none;align=center;verticalAlign=middle;whiteSpace=wrap;rounded=0;" vertex="1" parent="1">
          <mxGeometry x="570" y="310" width="150" height="40" as="geometry" />
        </mxCell>
        <mxCell id="FU0tGcsPPmCCPcC8ONBr-18" value="" style="endArrow=none;html=1;rounded=0;entryX=0.564;entryY=1.013;entryDx=0;entryDy=0;entryPerimeter=0;exitX=0.541;exitY=-0.047;exitDx=0;exitDy=0;exitPerimeter=0;" edge="1" parent="1" source="FU0tGcsPPmCCPcC8ONBr-4" target="FU0tGcsPPmCCPcC8ONBr-5">
          <mxGeometry width="50" height="50" relative="1" as="geometry">
            <mxPoint x="610" y="470" as="sourcePoint" />
            <mxPoint x="660" y="420" as="targetPoint" />
          </mxGeometry>
        </mxCell>
        <mxCell id="FU0tGcsPPmCCPcC8ONBr-19" value="DB" style="shape=cylinder3;whiteSpace=wrap;html=1;boundedLbl=1;backgroundOutline=1;size=15;" vertex="1" parent="1">
          <mxGeometry x="767" y="480" width="60" height="80" as="geometry" />
        </mxCell>
        <mxCell id="FU0tGcsPPmCCPcC8ONBr-20" value="DATA" style="rounded=0;whiteSpace=wrap;html=1;" vertex="1" parent="1">
          <mxGeometry x="840" y="420" width="100" height="30" as="geometry" />
        </mxCell>
        <mxCell id="FU0tGcsPPmCCPcC8ONBr-21" value="Services" style="rounded=0;whiteSpace=wrap;html=1;" vertex="1" parent="1">
          <mxGeometry x="530" y="430" width="100" height="30" as="geometry" />
        </mxCell>
        <mxCell id="FU0tGcsPPmCCPcC8ONBr-22" value="API" style="rounded=0;whiteSpace=wrap;html=1;" vertex="1" parent="1">
          <mxGeometry x="290" y="310" width="100" height="30" as="geometry" />
        </mxCell>
        <mxCell id="FU0tGcsPPmCCPcC8ONBr-23" value="Presentation Layer - API Layer" style="rounded=0;whiteSpace=wrap;html=1;" vertex="1" parent="1">
          <mxGeometry x="120" y="380" width="120" height="60" as="geometry" />
        </mxCell>
        <mxCell id="FU0tGcsPPmCCPcC8ONBr-24" value="Bussiness Logic Layer (Services)" style="rounded=0;whiteSpace=wrap;html=1;" vertex="1" parent="1">
          <mxGeometry x="120" y="500" width="120" height="60" as="geometry" />
        </mxCell>
        <mxCell id="FU0tGcsPPmCCPcC8ONBr-25" value="Data Access Layer (Repository)" style="rounded=0;whiteSpace=wrap;html=1;" vertex="1" parent="1">
          <mxGeometry x="120" y="630" width="120" height="60" as="geometry" />
        </mxCell>
        <mxCell id="FU0tGcsPPmCCPcC8ONBr-26" value="Repositories" style="rounded=0;whiteSpace=wrap;html=1;" vertex="1" parent="1">
          <mxGeometry x="660" y="430" width="100" height="30" as="geometry" />
        </mxCell>
        <mxCell id="FU0tGcsPPmCCPcC8ONBr-27" value="" style="endArrow=none;html=1;rounded=0;" edge="1" parent="1">
          <mxGeometry width="50" height="50" relative="1" as="geometry">
            <mxPoint x="155" y="490" as="sourcePoint" />
            <mxPoint x="205" y="440" as="targetPoint" />
          </mxGeometry>
        </mxCell>
        <mxCell id="FU0tGcsPPmCCPcC8ONBr-28" value="" style="endArrow=none;html=1;rounded=0;" edge="1" parent="1">
          <mxGeometry width="50" height="50" relative="1" as="geometry">
            <mxPoint x="150" y="610" as="sourcePoint" />
            <mxPoint x="200" y="560" as="targetPoint" />
          </mxGeometry>
        </mxCell>
        <mxCell id="FU0tGcsPPmCCPcC8ONBr-29" value="Core Layer" style="rounded=0;whiteSpace=wrap;html=1;" vertex="1" parent="1">
          <mxGeometry x="290" y="365" width="76" height="310" as="geometry" />
        </mxCell>
        <mxCell id="FU0tGcsPPmCCPcC8ONBr-30" value="" style="endArrow=none;html=1;rounded=0;" edge="1" parent="1">
          <mxGeometry width="50" height="50" relative="1" as="geometry">
            <mxPoint x="240" y="435" as="sourcePoint" />
            <mxPoint x="290" y="385" as="targetPoint" />
          </mxGeometry>
        </mxCell>
        <mxCell id="FU0tGcsPPmCCPcC8ONBr-31" value="" style="endArrow=none;html=1;rounded=0;" edge="1" parent="1">
          <mxGeometry width="50" height="50" relative="1" as="geometry">
            <mxPoint x="240" y="530" as="sourcePoint" />
            <mxPoint x="290" y="480" as="targetPoint" />
          </mxGeometry>
        </mxCell>
        <mxCell id="FU0tGcsPPmCCPcC8ONBr-32" value="" style="endArrow=none;html=1;rounded=0;" edge="1" parent="1">
          <mxGeometry width="50" height="50" relative="1" as="geometry">
            <mxPoint x="240" y="660" as="sourcePoint" />
            <mxPoint x="290" y="610" as="targetPoint" />
          </mxGeometry>
        </mxCell>
        <mxCell id="FU0tGcsPPmCCPcC8ONBr-33" value="Core Layer&lt;br&gt;Cross Cutting Layer&lt;br&gt;&lt;br&gt;Repository Base&lt;br&gt;Root Entity&lt;br&gt;IRepository&lt;br&gt;IRequest" style="rounded=0;whiteSpace=wrap;html=1;" vertex="1" parent="1">
          <mxGeometry x="1080" y="140" width="76" height="400" as="geometry" />
        </mxCell>
        <mxCell id="FU0tGcsPPmCCPcC8ONBr-34" value="Common Layer&lt;br&gt;&lt;br&gt;Veri Manuplation İşlemleri&lt;br&gt;&lt;br&gt;DateHelpers&lt;br&gt;StringHelpers&lt;br&gt;" style="rounded=0;whiteSpace=wrap;html=1;" vertex="1" parent="1">
          <mxGeometry x="1165" y="140" width="76" height="400" as="geometry" />
        </mxCell>
        <mxCell id="FU0tGcsPPmCCPcC8ONBr-35" value="Authorization Layer&lt;br&gt;&lt;br&gt;Uygulama Yetkilerini Baseleri burada bulunabilir.&lt;br&gt;&lt;br&gt;DateHelpers&lt;br&gt;StringHelpers" style="rounded=0;whiteSpace=wrap;html=1;" vertex="1" parent="1">
          <mxGeometry x="1250" y="140" width="76" height="400" as="geometry" />
        </mxCell>
      </root>
    </mxGraphModel>
  </diagram>
</mxfile>
